<svg width="559" height="576" viewBox="0 0 559 576" fill="none" xmlns="http://www.w3.org/2000/svg">
<path d="M476.482 299.428C366.968 236.21 190.022 236.21 81.221 299.428C-27.5796 362.647 -26.996 465.158 82.5178 528.377C192.032 591.595 368.978 591.595 477.779 528.377C586.58 465.158 585.996 362.647 476.482 299.428Z" fill="#F5F5F5"/>
<path d="M336.363 296.316L319.505 286.59C314.253 283.608 307.769 283.608 302.517 286.655L209.278 340.666L201.043 335.933L133.481 375.485L141.326 379.959L30.9048 443.696C27.0793 445.901 27.0793 451.347 30.9048 453.487L47.8927 463.343C53.1447 466.325 59.6287 466.325 64.8807 463.343L175.237 399.476L188.14 406.932C198.644 412.962 211.612 412.962 222.116 406.932L261.798 383.979C266.791 381.061 266.791 373.799 261.733 370.882L243.189 360.183L258.815 351.105L294.412 371.66C297.784 373.605 299.859 377.171 299.859 381.061C299.859 385.017 297.784 388.518 294.412 390.528L235.279 424.698C224.775 430.728 211.677 430.728 201.173 424.633C189.048 417.631 174.005 417.631 161.816 424.569L133.092 441.038C129.266 443.242 126.932 447.198 126.932 451.671C126.932 456.081 129.201 460.036 133.092 462.24L149.561 471.772L143.336 475.338C142.429 475.857 141.975 476.764 141.91 477.672C141.91 477.715 141.91 477.737 141.91 477.737C141.91 477.78 141.91 477.802 141.91 477.802C141.91 478.774 142.429 479.682 143.336 480.266L156.045 487.592L154.294 488.565C153.905 488.824 153.905 489.473 154.294 489.732L157.147 491.288C157.925 491.742 158.833 491.742 159.611 491.288L164.993 488.176L175.302 494.141C176.08 494.595 176.988 494.595 177.766 494.141L178.868 493.558C179.257 493.298 179.257 492.715 178.868 492.455L168.235 486.296L175.367 482.211L185.806 488.241C186.584 488.695 187.557 488.695 188.335 488.241L189.372 487.657C189.826 487.398 189.826 486.75 189.372 486.555L178.674 480.331L184.056 477.218L178.998 474.3L173.616 477.413L164.669 472.29L164.15 472.55L160.454 470.41C157.796 468.919 154.554 468.919 151.96 470.41L149.561 471.772L152.284 467.038L135.815 457.572C133.675 456.34 132.379 454.135 132.379 451.671C132.379 449.208 133.675 447.003 135.815 445.771L164.539 429.302C175.043 423.272 188.011 423.337 198.515 429.367C210.64 436.434 225.812 436.434 238.002 429.367L297.136 395.196C302.258 392.279 305.305 386.962 305.305 381.061C305.305 375.161 302.258 369.909 297.136 366.926L264.262 347.993L336.363 306.107C340.124 303.967 340.124 298.456 336.363 296.316Z" fill="#E6E6E6"/>
<path d="M441.339 417.242C419.488 404.598 384.215 404.598 362.494 417.242C340.837 429.821 340.902 450.31 362.753 462.889C384.604 475.532 419.877 475.532 441.598 462.889C463.319 450.31 463.189 429.821 441.339 417.242Z" fill="#E6E6E6"/>
<path d="M507.864 378.014C498.203 372.373 482.577 372.373 472.98 378.014C463.384 383.59 463.384 392.603 473.11 398.179C482.771 403.755 498.397 403.755 507.994 398.179C517.59 392.603 517.525 383.59 507.864 378.014Z" fill="#E6E6E6"/>
<path d="M352.639 16.4045L358.993 12.7086L358.604 144.657L352.25 148.353L352.639 16.4045Z" fill="#F0F0F0"/>
<path d="M352.25 148.353L358.604 144.657L542.683 250.929L536.329 254.625L352.25 148.353Z" fill="#F5F5F5"/>
<path fill-rule="evenodd" clip-rule="evenodd" d="M345.312 3.76068L544.045 118.462L543.591 267.268L344.858 152.567L345.312 3.76068ZM536.329 254.624L536.718 122.676L352.639 16.4044L352.25 148.353L536.329 254.624Z" fill="#E0E0E0"/>
<path d="M345.312 3.76075L351.666 6.10352e-05L550.399 114.766L544.044 118.462L345.312 3.76075Z" fill="#F5F5F5"/>
<path d="M544.045 118.462L550.399 114.766L550.01 263.572L543.591 267.268L544.045 118.462Z" fill="#F0F0F0"/>
<path d="M440.949 67.4331L440.625 199.381L447.952 203.596L448.341 71.6477L440.949 67.4331Z" fill="#E0E0E0"/>
<path d="M448.341 71.6476L447.952 203.596L454.306 199.9L454.695 75.3434L448.341 71.6476Z" fill="#F0F0F0"/>
<path opacity="0.2" d="M448.277 77.6129L448.342 71.6477L440.95 67.4331V73.3335L448.277 77.6129Z" fill="black"/>
<path opacity="0.2" d="M448.277 77.6128L453.464 74.6302L448.342 71.6476L448.277 77.6128Z" fill="black"/>
<path d="M512.468 348.641L490.487 349.29L468.442 348.641C467.534 363.555 470.387 378.662 474.407 386.119V386.054C475.12 387.74 476.611 389.231 478.816 390.528C485.3 394.288 495.804 394.288 502.223 390.528C504.492 389.231 505.919 387.61 506.567 385.989C510.587 378.532 513.44 363.425 512.468 348.641Z" fill="#37474F"/>
<path d="M505.983 339.629C514.607 344.621 514.672 352.726 506.113 357.654C497.554 362.647 483.549 362.647 474.925 357.654C466.301 352.726 466.301 344.621 474.86 339.629C483.419 334.636 497.36 334.636 505.983 339.629Z" fill="#455A64"/>
<path d="M502.612 341.639C509.291 345.529 509.356 351.819 502.677 355.709C495.999 359.599 485.106 359.599 478.362 355.709C471.619 351.819 471.619 345.529 478.298 341.639C484.976 337.749 495.869 337.749 502.612 341.639Z" fill="#263238"/>
<path d="M488.607 349.29C492.303 352.337 497.296 353.44 501.575 352.208C505.79 350.976 509.291 347.474 510.588 343.065C507.929 341.898 505.79 340.148 503.52 338.138C506.697 337.359 510.328 337.489 513.57 338.527C515.256 335.868 515.71 332.043 514.284 328.995C510.523 327.309 506.114 326.985 502.353 328.152C505.725 325.235 509.939 323.873 514.413 324.327C514.867 313.499 511.56 305.783 511.56 305.783C503.326 306.237 495.35 309.738 492.692 312.331C492.238 315.573 493.6 321.02 493.6 321.02C489.839 318.945 489.774 315.379 489.774 315.379C484.652 316.676 482.447 319.204 481.605 321.214C481.994 324.392 484.976 329.773 486.467 331.07C481.669 329.579 479.724 324.197 479.724 324.197C474.991 335.479 475.899 348.188 488.607 349.29Z" fill="#22C55E"/>
<path opacity="0.2" d="M488.607 349.29C492.303 352.337 497.296 353.44 501.575 352.208C505.79 350.976 509.291 347.474 510.588 343.065C507.929 341.898 505.79 340.148 503.52 338.138C506.697 337.359 510.328 337.489 513.57 338.527C515.256 335.868 515.71 332.043 514.284 328.995C510.523 327.309 506.114 326.985 502.353 328.152C505.725 325.235 509.939 323.873 514.413 324.327C514.867 313.499 511.56 305.783 511.56 305.783C503.326 306.237 495.35 309.738 492.692 312.331C492.238 315.573 493.6 321.02 493.6 321.02C489.839 318.945 489.774 315.379 489.774 315.379C484.652 316.676 482.447 319.204 481.605 321.214C481.994 324.392 484.976 329.773 486.467 331.07C481.669 329.579 479.724 324.197 479.724 324.197C474.991 335.479 475.899 348.188 488.607 349.29Z" fill="black"/>
<path d="M488.347 350.522C488.347 350.522 488.326 350.522 488.282 350.522C488.023 350.457 487.829 350.263 487.893 350.003C488.672 339.629 494.572 322.511 508.707 308.376C508.901 308.182 509.226 308.182 509.42 308.376C509.615 308.571 509.615 308.895 509.42 309.089C495.415 322.965 489.579 339.823 488.801 350.068C488.801 350.327 488.607 350.522 488.347 350.522Z" fill="#F5F5F5"/>
<path d="M492.238 354.801C488.931 357.524 484.392 358.497 480.243 357.395C476.158 356.357 472.656 353.245 471.165 349.29C473.629 348.252 475.509 346.696 477.519 344.946C474.472 344.168 471.036 344.297 468.053 345.205C466.237 342.871 465.589 339.434 466.756 336.711C470.257 335.22 474.342 335.025 478.038 336.063C474.667 333.469 470.517 332.237 466.302 332.561C465.2 322.9 467.923 316.027 467.923 316.027C475.704 316.481 483.485 319.723 486.143 322.057C486.792 324.975 485.819 329.773 485.819 329.773C489.255 327.958 489.061 324.781 489.061 324.781C493.989 325.948 496.193 328.282 497.036 330.033C496.906 332.885 494.443 337.619 493.146 338.721C497.555 337.424 499.046 332.691 499.046 332.691C504.168 342.676 504.039 353.893 492.238 354.801Z" fill="#22C55E"/>
<path d="M492.562 355.968C492.303 355.968 492.108 355.774 492.043 355.579C490.747 346.502 484.198 331.524 470.128 319.01C469.933 318.815 469.868 318.556 470.063 318.361C470.257 318.167 470.517 318.167 470.776 318.297C484.976 331.005 491.654 346.242 493.016 355.385C493.081 355.644 492.886 355.903 492.627 355.968C492.584 355.968 492.562 355.968 492.562 355.968Z" fill="white"/>
<path d="M122.588 64.7747L122.718 102.187L127.257 104.846L127.127 62.1812L122.588 64.7747Z" fill="#F0F0F0"/>
<path d="M73.6992 130.522L73.7641 135.709L127.257 104.845L122.718 102.187L73.6992 130.522Z" fill="#F5F5F5"/>
<path fill-rule="evenodd" clip-rule="evenodd" d="M132.704 107.958L68.2532 145.175L68.1235 89.9322L132.574 52.7144L132.704 107.958ZM127.192 104.845L127.063 62.1161L122.589 64.7745L73.57 93.0445L73.6997 130.457V135.709L127.192 104.845Z" fill="#E0E0E0"/>
<path d="M132.573 52.7144L128.034 50.056L63.584 87.2739L68.1227 89.9323L132.573 52.7144Z" fill="#F5F5F5"/>
<path d="M63.584 87.2738L63.7137 142.582L68.2524 145.175L68.1227 89.9322L63.584 87.2738Z" fill="#F0F0F0"/>
<path d="M107.027 78.9744L120.384 89.5432V99.7878L75.9688 125.464V115.155L84.3979 98.3614L92.0489 104.262L89.3257 112.626L93.216 105.17L107.027 78.9744Z" fill="#E0E0E0"/>
<path d="M92.4379 84.1616C94.5128 82.9945 96.1986 83.9671 96.2635 86.3661C96.2635 88.7652 94.5776 91.683 92.4379 92.8501C90.3631 94.082 88.6772 93.1094 88.6772 90.7104C88.6772 88.3113 90.3631 85.3935 92.4379 84.1616Z" fill="#E0E0E0"/>
<path d="M204.611 18.5441L204.741 55.9565L209.279 58.6149L209.15 15.9506L204.611 18.5441Z" fill="#F0F0F0"/>
<path d="M155.721 84.2264V89.4784L209.279 58.6148L204.74 55.9564L155.721 84.2264Z" fill="#F5F5F5"/>
<path fill-rule="evenodd" clip-rule="evenodd" d="M214.725 61.7272L150.275 98.945L150.145 43.7018L214.595 6.48401L214.725 61.7272ZM209.214 58.6149L209.084 15.8857L204.545 18.5441L155.592 46.8141L155.721 84.2265V89.4785L209.214 58.6149Z" fill="#E0E0E0"/>
<path d="M214.596 6.48404L210.057 3.82562L145.606 41.0435L150.145 43.7019L214.596 6.48404Z" fill="#F5F5F5"/>
<path d="M145.606 41.0435L145.736 96.3515L150.275 98.9451L150.145 43.7019L145.606 41.0435Z" fill="#F0F0F0"/>
<path d="M189.048 32.744L202.405 43.248V53.5575L157.99 79.1691V68.9244L166.419 52.131L174.07 58.0314L171.347 66.3308L175.238 58.9392L189.048 32.744Z" fill="#E0E0E0"/>
<path d="M174.46 37.9312C176.535 36.6992 178.221 37.6718 178.221 40.0709C178.285 42.4699 176.535 45.4526 174.46 46.6197C172.385 47.8516 170.699 46.879 170.699 44.48C170.699 42.0809 172.385 39.1631 174.46 37.9312Z" fill="#E0E0E0"/>
<path d="M149.562 469.373L133.093 459.841C129.202 457.637 126.933 453.682 126.933 449.208C126.933 444.799 129.267 440.843 133.093 438.639L161.817 422.17C174.007 415.167 189.049 415.232 201.174 422.234C211.678 428.329 224.776 428.329 235.28 422.234L294.413 388.064C297.785 386.119 299.86 382.617 299.86 378.662C299.86 374.707 297.785 371.206 294.413 369.261L234.567 334.636C230.352 332.237 227.758 327.698 227.758 322.9V314.99H233.205V322.9C233.205 325.818 234.761 328.477 237.29 329.968L297.137 364.527C302.259 367.445 305.306 372.762 305.306 378.662C305.306 384.563 302.259 389.815 297.137 392.797L238.003 426.968C225.813 433.97 210.641 433.97 198.516 426.968C188.012 420.873 175.044 420.873 164.54 426.903L135.816 443.307C133.676 444.539 132.38 446.744 132.38 449.208C132.38 451.672 133.676 453.876 135.816 455.108L152.285 464.639L149.562 469.373Z" fill="#455A64"/>
<path opacity="0.3" d="M233.205 322.9V314.99H227.759V322.9C227.759 325.299 228.407 327.698 229.574 329.709L234.308 326.985C233.594 325.753 233.205 324.327 233.205 322.9Z" fill="black"/>
<path d="M142.56 465.742V465.808C142.604 465.764 142.626 465.742 142.626 465.742H142.56Z" fill="#37474F"/>
<path d="M156.824 475.727L143.986 468.27C143.078 467.752 142.624 466.779 142.56 465.871V474.56H142.624C142.56 475.532 143.013 476.505 143.986 477.089L156.824 484.545L173.877 474.69L166.291 470.28L156.824 475.727Z" fill="#37474F"/>
<path d="M143.986 468.27L156.824 475.727L166.291 470.281L173.877 465.871L161.104 458.48C158.445 456.924 155.203 456.924 152.61 458.48L143.986 463.343C143.078 463.861 142.624 464.769 142.624 465.742C142.624 465.742 142.603 465.763 142.56 465.807C142.56 465.807 142.56 465.828 142.56 465.871C142.624 466.779 143.078 467.752 143.986 468.27Z" fill="#455A64"/>
<path d="M158.122 489.343V476.246C158.122 475.273 158.64 474.301 159.548 473.847L177.898 463.213C178.222 463.019 178.611 463.083 178.935 463.278L176.406 461.527C176.147 461.333 175.693 461.268 175.369 461.462L157.019 472.031C156.111 472.55 155.593 473.523 155.593 474.495V487.593C155.593 487.917 155.787 488.176 156.047 488.371L158.511 490.121C158.251 489.927 158.122 489.668 158.122 489.343Z" fill="#455A64"/>
<path opacity="0.2" d="M158.122 489.343V476.246C158.122 475.273 158.64 474.301 159.548 473.847L177.898 463.213C178.222 463.019 178.611 463.083 178.935 463.278L176.406 461.527C176.147 461.333 175.693 461.268 175.369 461.462L157.019 472.031C156.111 472.55 155.593 473.523 155.593 474.495V487.593C155.593 487.917 155.787 488.176 156.047 488.371L158.511 490.121C158.251 489.927 158.122 489.668 158.122 489.343Z" fill="white"/>
<path d="M178.935 463.278C178.61 463.083 178.221 463.018 177.897 463.213L159.548 473.847C158.64 474.3 158.121 475.273 158.121 476.246V489.343C158.121 489.667 158.251 489.927 158.51 490.121C158.769 490.316 159.159 490.316 159.548 490.121L177.897 479.552C178.74 479.034 179.324 478.061 179.324 477.089V464.056C179.324 463.732 179.129 463.472 178.935 463.278Z" fill="#455A64"/>
<path fill-rule="evenodd" clip-rule="evenodd" d="M179.518 490.64V490.705H179.453L178.416 491.353V491.288C177.767 491.677 176.86 491.677 175.822 491.094L162.984 483.637L163.049 475.403L164.086 474.754L176.989 482.211C178.934 483.313 180.555 486.101 180.555 488.371C180.555 489.473 180.166 490.251 179.518 490.64ZM177.249 487.722C177.249 486.685 176.471 485.388 175.563 484.869C175.39 484.783 175.239 484.718 175.109 484.675C175.066 484.804 175.044 484.934 175.044 485.064C175.044 486.101 175.757 487.333 176.665 487.917C176.838 488.003 177.011 488.046 177.184 488.046C177.184 487.982 177.249 487.852 177.249 487.722Z" fill="#1E40AF"/>
<path opacity="0.5" fill-rule="evenodd" clip-rule="evenodd" d="M179.518 490.64V490.705H179.453L178.416 491.353V491.288C177.767 491.677 176.86 491.677 175.822 491.094L162.984 483.637L163.049 475.403L164.086 474.754L176.989 482.211C178.934 483.313 180.555 486.101 180.555 488.371C180.555 489.473 180.166 490.251 179.518 490.64ZM177.249 487.722C177.249 486.685 176.471 485.388 175.563 484.869C175.39 484.783 175.239 484.718 175.109 484.675C175.066 484.804 175.044 484.934 175.044 485.064C175.044 486.101 175.757 487.333 176.665 487.917C176.838 488.003 177.011 488.046 177.184 488.046C177.184 487.982 177.249 487.852 177.249 487.722Z" fill="white"/>
<path opacity="0.2" d="M180.555 488.371C180.555 486.101 178.934 483.313 176.989 482.211L164.086 474.754L163.049 475.403L175.887 482.859C177.832 483.961 179.453 486.75 179.453 489.019C179.453 490.121 179.064 490.964 178.416 491.288V491.353L179.453 490.705H179.518V490.64C180.166 490.251 180.555 489.473 180.555 488.371Z" fill="black"/>
<g opacity="0.2">
<path d="M175.044 485.064C175.044 484.934 175.066 484.805 175.109 484.675C174.396 484.545 173.942 484.999 173.942 485.842C173.942 486.879 174.655 488.176 175.563 488.695C176.406 489.149 177.054 488.889 177.184 488.111C177.011 488.068 176.838 488.003 176.665 487.917C175.757 487.333 175.044 486.101 175.044 485.064Z" fill="black"/>
</g>
<path fill-rule="evenodd" clip-rule="evenodd" d="M189.503 485.194C189.503 485.194 189.482 485.194 189.438 485.194L188.401 485.842C187.753 486.231 186.845 486.166 185.872 485.583L172.969 478.191L173.034 469.891L174.136 469.243L186.975 476.7C188.92 477.802 190.541 480.59 190.541 482.859C190.541 483.962 190.152 484.805 189.503 485.194ZM187.234 482.211C187.234 481.173 186.521 479.942 185.548 479.358C185.375 479.272 185.224 479.207 185.094 479.163C185.051 479.293 185.029 479.423 185.029 479.553C185.029 480.59 185.807 481.887 186.715 482.405C186.888 482.492 187.039 482.557 187.169 482.6C187.169 482.47 187.234 482.341 187.234 482.211Z" fill="#1E40AF"/>
<path opacity="0.5" fill-rule="evenodd" clip-rule="evenodd" d="M189.503 485.194C189.503 485.194 189.482 485.194 189.438 485.194L188.401 485.842C187.753 486.231 186.845 486.166 185.872 485.583L172.969 478.191L173.034 469.891L174.136 469.243L186.975 476.7C188.92 477.802 190.541 480.59 190.541 482.859C190.541 483.962 190.152 484.805 189.503 485.194ZM187.234 482.211C187.234 481.173 186.521 479.942 185.548 479.358C185.375 479.272 185.224 479.207 185.094 479.163C185.051 479.293 185.029 479.423 185.029 479.553C185.029 480.59 185.807 481.887 186.715 482.405C186.888 482.492 187.039 482.557 187.169 482.6C187.169 482.47 187.234 482.341 187.234 482.211Z" fill="white"/>
<path opacity="0.2" d="M190.541 482.859C190.541 480.59 188.92 477.802 186.975 476.7L174.136 469.243L173.034 469.891L185.872 477.348C187.818 478.45 189.439 481.238 189.439 483.508C189.439 484.61 189.05 485.453 188.401 485.842L189.439 485.194C189.482 485.194 189.503 485.194 189.503 485.194C190.152 484.805 190.541 483.962 190.541 482.859Z" fill="black"/>
<g opacity="0.2">
<path d="M185.03 479.552C185.03 479.423 185.051 479.293 185.094 479.163C184.446 479.034 183.927 479.488 183.927 480.331C183.927 481.368 184.64 482.665 185.548 483.183C186.391 483.637 187.04 483.378 187.169 482.6C187.04 482.557 186.888 482.492 186.715 482.405C185.808 481.887 185.03 480.59 185.03 479.552Z" fill="black"/>
</g>
<path d="M248.053 373.735L215.698 392.214C206.232 397.595 194.561 397.595 185.159 392.149L161.168 378.338C158.315 376.717 156.565 373.67 156.565 370.363L156.5 354.023L151.507 356.876V371.141C151.507 374.966 153.582 378.533 156.889 380.413L185.353 396.817C194.69 402.199 206.102 402.199 215.439 396.882L248.053 378.273C252.916 375.485 254.861 370.168 253.954 365.305C253.37 368.677 251.36 371.789 248.053 373.735Z" fill="#1E40AF"/>
<path d="M161.168 378.338L185.159 392.149C194.561 397.595 206.232 397.595 215.698 392.214L248.053 373.735C251.36 371.789 253.37 368.677 253.954 365.305C253.37 362.063 251.49 359.016 248.248 357.071L221.728 341.185C218.486 339.24 216.476 335.739 216.476 331.978V327.439V319.334L156.5 354.023L156.565 370.363C156.565 373.67 158.316 376.717 161.168 378.338Z" fill="#1E40AF"/>
<path opacity="0.4" d="M161.168 378.338C158.315 376.717 156.565 373.67 156.565 370.363L156.5 354.023L151.507 356.876V371.141C151.507 374.966 153.582 378.533 156.889 380.413L167.004 386.249V381.71L161.168 378.338Z" fill="black"/>
<path opacity="0.3" d="M161.168 378.338L167.004 381.71L229.639 345.918L221.728 341.185C218.487 339.24 216.476 335.739 216.476 331.978V327.439V319.334L156.5 354.023L156.565 370.363C156.565 373.67 158.316 376.717 161.168 378.338Z" fill="black"/>
<path d="M52.303 413.092L51.8491 208.005C51.8491 202.169 55.934 195.037 60.9915 192.119L315.94 45.3227C318.469 43.8314 320.738 43.7017 322.424 44.6094L312.828 39.0981C311.142 37.9958 308.808 38.1255 306.149 39.6168L51.2007 186.478C46.1432 189.396 41.9935 196.463 42.0584 202.299L42.5122 407.451C42.5122 410.174 43.42 412.119 44.9113 413.157H44.9761C45.1058 413.243 45.2571 413.33 45.43 413.416L54.9614 418.992C53.3404 418.02 52.303 415.945 52.303 413.092Z" fill="#1E40AF"/>
<path opacity="0.3" d="M312.828 39.0981C311.142 37.9958 308.808 38.1255 306.15 39.6168L51.2009 186.478C48.348 188.099 45.8841 191.017 44.1982 194.259L53.989 199.965C55.6748 196.658 58.2036 193.74 60.9917 192.119L315.94 45.3227C318.469 43.8314 320.738 43.7017 322.424 44.6094L312.828 39.0981Z" fill="white"/>
<path opacity="0.2" d="M42.0586 202.299L42.5125 407.451C42.5125 410.174 43.4202 412.119 44.9115 413.157H44.9764C45.106 413.243 45.2573 413.33 45.4302 413.416L54.9616 418.992C53.3407 418.02 52.3032 415.945 52.3032 413.092L51.8493 208.005C51.8493 205.411 52.6274 202.558 53.989 199.965L44.1983 194.259C42.8367 196.852 42.0586 199.705 42.0586 202.299Z" fill="black"/>
<path d="M322.554 44.6744H322.488C322.488 44.6744 322.51 44.6965 322.554 44.7405V44.6744Z" fill="#FFA8A7"/>
<path fill-rule="evenodd" clip-rule="evenodd" d="M325.601 255.662C325.666 261.497 321.516 268.63 316.459 271.547L61.5102 418.344C59.0463 419.77 56.7769 419.965 55.1559 419.057C55.1127 419.057 55.0911 419.057 55.0911 419.057C55.0479 419.014 55.0046 418.992 54.9614 418.992C53.3404 418.02 52.303 415.945 52.303 413.092L51.8491 208.005C51.8491 202.169 55.934 195.037 60.9915 192.119L315.94 45.3227C318.469 43.8314 320.738 43.7017 322.424 44.6095C322.424 44.6527 322.446 44.6743 322.489 44.6743C322.489 44.6743 322.511 44.6959 322.554 44.7392C324.175 45.6469 325.147 47.7218 325.147 50.5747L325.601 255.662ZM316.589 255.662L316.135 55.6322L65.5302 199.965C63.2609 201.262 60.8618 205.346 60.8618 207.94L61.3157 407.97L311.92 263.637C314.189 262.34 316.589 258.255 316.589 255.662Z" fill="#1E40AF"/>
<path d="M316.134 55.697L309.65 59.3929L310.039 252.55C310.039 255.143 307.705 259.228 305.435 260.525L61.3149 401.097V407.97L311.919 263.702C314.189 262.405 316.588 258.255 316.588 255.727L316.134 55.697Z" fill="#1E40AF"/>
<path opacity="0.3" d="M316.134 55.697L309.65 59.3929L310.039 252.55C310.039 255.143 307.705 259.228 305.435 260.525L61.3149 401.097V407.97L311.919 263.702C314.189 262.405 316.588 258.255 316.588 255.727L316.134 55.697Z" fill="black"/>
<path d="M310.039 252.549L309.65 59.3928L65.5297 199.965C63.2603 201.261 60.8613 205.411 60.9261 207.94L61.3151 401.097L305.436 260.525C307.705 259.228 310.039 255.143 310.039 252.549Z" fill="#455A64"/>
<g opacity="0.2">
<path d="M256.547 89.9971L170.635 338.138L200.072 321.214L285.984 73.074L256.547 89.9971Z" fill="white"/>
<path d="M187.039 130.003L101.191 378.144L118.244 368.288L204.156 120.147L187.039 130.003Z" fill="white"/>
<path d="M111.242 173.64L61.1211 318.297L61.3156 401.097L70.3283 395.91L156.241 147.769L111.242 173.64Z" fill="white"/>
<path d="M309.846 147.963L262.253 285.358L278.204 276.216L309.91 184.663L309.846 147.963Z" fill="white"/>
<path d="M309.651 59.3928L304.075 62.6348L218.163 310.775L229.574 304.162L309.651 72.9443V59.3928Z" fill="white"/>
</g>
<path d="M93.7998 242.046L95.0966 250.021C95.5504 252.679 97.5605 253.846 100.089 252.874L107.611 249.956L100.089 255.727C97.5605 257.672 95.5504 261.173 95.1614 264.35L93.9295 273.687L92.6327 265.777C92.2436 263.054 90.2336 261.887 87.64 262.924L80.1187 265.842L87.64 260.071C90.1688 258.061 92.1788 254.625 92.6327 251.447L93.7998 242.046Z" fill="#1E40AF"/>
<path d="M98.0791 217.861L98.922 222.918C99.1814 224.669 100.478 225.382 102.099 224.734L106.897 222.918L102.099 226.549C100.478 227.846 99.1814 230.05 98.922 232.06L98.1439 238.026L97.3659 232.968C97.1065 231.282 95.8097 230.504 94.1887 231.153L89.3906 233.033L94.1239 229.337C95.8097 228.105 97.0417 225.901 97.301 223.826L98.0791 217.861Z" fill="#1E40AF"/>
<path d="M303.49 77.2888L304.787 85.1992C305.241 87.9225 307.251 89.0896 309.78 88.0522L317.301 85.1344L309.78 90.9051C307.251 92.9151 305.241 96.3516 304.852 99.5287L303.62 108.93L302.323 100.955C301.934 98.2968 299.859 97.1297 297.33 98.1023L289.809 101.02L297.33 95.2493C299.859 93.3042 301.869 89.8677 302.323 86.6257L303.49 77.2888Z" fill="#1E40AF"/>
<path d="M312.308 53.2981L313.087 58.3556C313.346 60.1062 314.643 60.8195 316.264 60.1711L321.062 58.2907L316.329 61.9866C314.643 63.2185 313.411 65.4231 313.151 67.4979L312.373 73.4632L311.53 68.4057C311.271 66.655 309.974 65.9418 308.353 66.5902L303.555 68.4057L308.353 64.7747C309.974 63.4779 311.271 61.2733 311.53 59.2633L312.308 53.2981Z" fill="#1E40AF"/>
<path d="M256.093 254.106L256.871 259.163C257.13 260.914 258.427 261.627 260.048 261.044L264.846 259.163L260.048 262.859C258.427 264.091 257.195 266.296 256.936 268.306L256.158 274.271L255.315 269.213C255.055 267.528 253.758 266.75 252.137 267.398L247.339 269.278L252.137 265.582C253.758 264.35 255.055 262.146 255.315 260.136L256.093 254.106Z" fill="#1E40AF"/>
<path d="M76.6172 238.415L77.2656 242.37C77.4601 243.732 78.4976 244.25 79.7295 243.796L83.4902 242.305L79.7295 245.223C78.4976 246.195 77.4601 247.881 77.2656 249.502L76.6821 254.171L76.0337 250.215C75.8391 248.854 74.8017 248.27 73.5049 248.789L69.8091 250.28L73.5049 247.363C74.8017 246.39 75.8391 244.639 76.0337 243.083L76.6172 238.415Z" fill="#1E40AF"/>
<g opacity="0.8">
<path d="M93.7998 242.046L95.0966 250.021C95.5504 252.679 97.5605 253.846 100.089 252.874L107.611 249.956L100.089 255.727C97.5605 257.672 95.5504 261.173 95.1614 264.35L93.9295 273.687L92.6327 265.777C92.2436 263.054 90.2336 261.887 87.64 262.924L80.1187 265.842L87.64 260.071C90.1688 258.061 92.1788 254.625 92.6327 251.447L93.7998 242.046Z" fill="white"/>
<path d="M98.0791 217.861L98.922 222.918C99.1814 224.669 100.478 225.382 102.099 224.734L106.897 222.918L102.099 226.549C100.478 227.846 99.1814 230.05 98.922 232.06L98.1439 238.026L97.3659 232.968C97.1065 231.282 95.8097 230.504 94.1887 231.153L89.3906 233.033L94.1239 229.337C95.8097 228.105 97.0417 225.901 97.301 223.826L98.0791 217.861Z" fill="white"/>
<path d="M303.49 77.2888L304.787 85.1992C305.241 87.9225 307.251 89.0896 309.78 88.0522L317.301 85.1344L309.78 90.9051C307.251 92.9151 305.241 96.3516 304.852 99.5287L303.62 108.93L302.323 100.955C301.934 98.2968 299.859 97.1297 297.33 98.1023L289.809 101.02L297.33 95.2493C299.859 93.3042 301.869 89.8677 302.323 86.6257L303.49 77.2888Z" fill="white"/>
<path d="M312.308 53.2981L313.087 58.3556C313.346 60.1062 314.643 60.8195 316.264 60.1711L321.062 58.2907L316.329 61.9866C314.643 63.2185 313.411 65.4231 313.151 67.4979L312.373 73.4632L311.53 68.4057C311.271 66.655 309.974 65.9418 308.353 66.5902L303.555 68.4057L308.353 64.7747C309.974 63.4779 311.271 61.2733 311.53 59.2633L312.308 53.2981Z" fill="white"/>
<path d="M256.093 254.106L256.871 259.163C257.13 260.914 258.427 261.627 260.048 261.044L264.846 259.163L260.048 262.859C258.427 264.091 257.195 266.296 256.936 268.306L256.158 274.271L255.315 269.213C255.055 267.528 253.758 266.75 252.137 267.398L247.339 269.278L252.137 265.582C253.758 264.35 255.055 262.146 255.315 260.136L256.093 254.106Z" fill="white"/>
<path d="M76.6172 238.415L77.2656 242.37C77.4601 243.732 78.4976 244.25 79.7295 243.796L83.4902 242.305L79.7295 245.223C78.4976 246.195 77.4601 247.881 77.2656 249.502L76.6821 254.171L76.0337 250.215C75.8391 248.854 74.8017 248.27 73.5049 248.789L69.8091 250.28L73.5049 247.363C74.8017 246.39 75.8391 244.639 76.0337 243.083L76.6172 238.415Z" fill="white"/>
</g>
<path d="M334.16 239.452C328.519 236.015 325.147 225.512 322.1 226.743C319.052 228.04 323.915 233.552 322.618 234.459C321.322 235.367 316.134 232.125 314.124 230.05C312.114 227.975 308.613 225.187 306.084 231.088C303.556 237.053 308.289 242.435 315.097 245.806C321.322 248.854 325.277 249.502 329.88 251.707C332.733 248.4 334.678 244.445 335.521 240.165C335.003 239.949 334.549 239.711 334.16 239.452Z" fill="#FFA8A7"/>
<path d="M394.137 207.227C384.93 204.633 378.51 209.172 375.204 217.342L362.884 247.622C362.884 247.622 342.784 243.537 335.522 240.165C334.679 244.445 332.734 248.4 329.881 251.707C330.356 251.923 330.832 252.161 331.307 252.42C334.938 254.3 352.445 262.6 362.949 267.203C367.553 269.213 372.869 267.333 375.268 262.924C386.226 242.5 397.249 216.434 394.137 207.227Z" fill="#455A64"/>
<path d="M359.382 432.738C361.652 435.072 365.024 436.045 368.265 435.98C371.507 435.915 374.62 434.878 377.602 433.646C380.585 432.414 384.346 428.977 387.588 429.042C390.57 429.107 394.072 428.783 397.054 428.459C397.314 421.975 395.693 415.75 395.693 415.75L380.585 415.361C376.5 420.873 368.59 425.476 362.624 427.227C360.679 427.746 359.253 429.302 358.864 431.117C358.864 431.16 358.864 431.204 358.864 431.247C359.123 432.219 359.382 432.738 359.382 432.738Z" fill="#37474F"/>
<path d="M387.588 429.042C384.346 428.978 380.586 432.414 377.603 433.646C374.62 434.878 371.508 435.915 368.266 435.98C365.024 436.045 361.652 435.072 359.383 432.738C359.383 432.738 359.124 432.22 358.864 431.247C358.864 431.204 358.864 431.16 358.864 431.117C358.735 431.766 358.735 432.479 358.864 433.127C359.124 434.1 359.383 434.683 359.383 434.683C361.652 436.953 365.024 437.99 368.266 437.861C371.508 437.796 374.62 436.758 377.603 435.526C380.586 434.294 384.346 430.923 387.588 430.988C390.895 431.052 393.748 430.793 396.86 430.469C396.947 429.777 397.012 429.107 397.055 428.459C394.072 428.783 390.571 429.107 387.588 429.042Z" fill="#263238"/>
<path d="M434.079 441.103C434.079 442.724 433.949 444.345 433.625 445.966C432.976 448.754 431.55 451.477 429.086 453.033C427.011 454.395 424.482 454.784 421.954 454.978C419.749 455.108 417.48 455.043 415.47 454.265C413.849 453.681 412.422 452.579 411.644 451.153C411.644 451.196 411.644 451.239 411.644 451.282C412.098 453.422 413.978 455.043 416.053 455.821C418.128 456.599 420.333 456.599 422.537 456.469C425.066 456.34 427.595 455.951 429.734 454.589C432.133 453.033 433.56 450.31 434.208 447.522C434.532 445.901 434.662 444.28 434.662 442.594C434.727 440.324 435.635 438.185 437.32 436.693C437.71 436.304 438.099 435.894 438.488 435.462C439.006 434.878 439.201 434.165 439.136 433.387C439.136 433.084 439.114 432.781 439.071 432.479C438.488 433.192 437.061 434.813 436.737 435.137C435.051 436.693 434.079 438.833 434.079 441.103Z" fill="#263238"/>
<path d="M421.694 424.115C422.342 427.421 421.694 430.858 420.462 433.97C419.165 437.083 417.22 439.935 415.145 442.594C414.173 443.891 413.135 445.123 412.422 446.549C411.709 447.976 411.32 449.661 411.644 451.153C412.422 452.579 413.848 453.681 415.469 454.265C417.479 455.043 419.749 455.108 421.953 454.978C424.482 454.784 427.011 454.395 429.086 453.033C431.55 451.477 432.976 448.754 433.624 445.966C433.949 444.345 434.078 442.724 434.078 441.103C434.078 438.833 435.051 436.693 436.737 435.137C437.061 434.813 438.487 433.192 439.071 432.479C438.552 428.459 436.672 425.606 436.672 425.606L421.694 424.115Z" fill="#37474F"/>
<path d="M379.938 284.126C379.938 284.126 376.177 333.858 376.501 347.669C376.825 361.48 378.187 416.14 378.187 416.14C386.033 420.678 397.315 417.307 397.315 417.307C398.222 373.67 402.372 364.268 399.584 348.317C401.529 336.452 404.317 308.83 404.317 308.83C408.208 342.093 410.996 359.21 410.996 359.21L420.333 425.671C427.984 429.626 437.58 425.671 437.58 425.671C437.58 387.805 438.423 371.725 434.403 346.761C434.208 308.247 430.513 280.625 430.513 280.625L379.938 284.126Z" fill="#455A64"/>
<path opacity="0.2" d="M389.208 296.964C391.867 303.448 400.231 303.448 400.231 303.448L401.722 310.84L401.139 336.97C402.76 324.262 404.316 308.83 404.316 308.83L403.279 300.985C396.211 301.244 391.154 298.521 389.208 296.964Z" fill="black"/>
<path d="M423.639 166.508C421.37 163.655 417.739 163.33 417.739 163.33L386.745 166.248C383.179 173.77 386.032 178.762 386.032 178.762C385.578 190.304 385.189 197.631 390.247 200.094C393.035 201.391 397.249 201.975 401.529 201.651C405.16 201.391 408.856 200.483 411.903 198.927L412.098 198.798C414.367 197.631 415.988 195.491 416.507 192.962C417.025 190.758 417.414 188.488 417.609 186.154C417.674 184.857 417.739 183.56 417.998 182.264C418.322 180.967 418.841 179.735 419.749 178.827C420.656 177.919 422.018 177.336 423.315 177.595C423.574 177.66 423.769 177.79 423.963 177.854C424.871 172.732 425.13 168.323 423.639 166.508Z" fill="#37474F"/>
<path d="M412.292 167.416C411.644 169.49 412.033 171.76 412.746 173.899C413.394 175.974 414.302 177.984 414.691 180.189C415.08 182.329 414.821 184.598 413.848 186.543C412.876 188.423 411.06 189.98 408.92 190.434C405.614 191.147 402.307 189.202 399 188.553C395.888 187.97 392.451 188.618 389.663 190.239C388.626 190.823 387.329 190.174 387.264 188.942C386.875 182.329 386.875 171.889 387.848 167.026L412.292 167.416Z" fill="#FFA8A7"/>
<path d="M418.193 189.461C418.193 189.461 418.128 192.184 418.063 195.426C419.295 194.388 420.138 193.092 420.916 190.952C419.878 190.822 418.776 190.304 418.193 189.461Z" fill="#37474F"/>
<path d="M388.366 161.385C387.069 160.477 385.794 159.591 384.541 158.727C383.633 161.191 384.346 164.173 385.967 166.248C387.653 168.323 390.182 169.685 392.775 170.268C395.369 170.852 398.092 170.852 400.751 170.657C404.641 170.333 408.531 169.62 412.292 168.518C413.913 168.064 415.664 167.415 416.766 166.183C418.452 164.238 418.387 161.191 417.025 159.116C415.664 156.976 413.2 155.744 410.671 155.42C408.142 155.096 405.549 155.55 403.02 156.004C400.491 156.457 397.898 156.976 395.369 156.587C392.775 156.198 390.247 154.836 389.144 152.502C387.005 156.004 388.366 161.385 388.366 161.385Z" fill="#37474F"/>
<path d="M398.092 179.151L392.451 186.024L397.638 187.84L398.092 179.151Z" fill="#F28F8F"/>
<path d="M402.372 191.211C400.902 191.644 399.433 192.098 397.963 192.573C398.417 193.546 399.843 194.194 400.945 193.935C401.983 193.61 402.502 192.314 402.372 191.211Z" fill="#F28F8F"/>
<path opacity="0.3" d="M402.372 191.211C400.902 191.644 399.433 192.098 397.963 192.573C398.417 193.546 399.843 194.194 400.945 193.935C401.983 193.61 402.502 192.314 402.372 191.211Z" fill="black"/>
<path d="M399.518 193.805C399.972 194 400.491 194.064 400.945 193.935C401.787 193.675 402.241 192.832 402.371 191.925C401.787 191.86 401.139 191.925 400.685 192.249C400.102 192.573 399.648 193.157 399.518 193.805Z" fill="#F28F8F"/>
<path d="M405.743 180.643C405.678 181.486 404.965 182.199 404.122 182.134C403.279 182.069 402.63 181.356 402.63 180.513C402.695 179.605 403.408 178.957 404.316 179.022C405.159 179.087 405.807 179.8 405.743 180.643Z" fill="#263238"/>
<path d="M392.775 179.476C392.71 180.319 391.997 180.967 391.154 180.902C390.311 180.902 389.663 180.124 389.663 179.281C389.727 178.438 390.441 177.79 391.348 177.855C392.191 177.855 392.84 178.633 392.775 179.476Z" fill="#263238"/>
<path d="M391.609 173.186C390.441 173.921 389.253 174.656 388.042 175.391C387.783 174.548 388.107 173.51 388.82 172.992C389.534 172.473 390.895 172.667 391.609 173.186Z" fill="#263238"/>
<path d="M404.9 173.77C405.981 174.591 407.083 175.434 408.207 176.298C408.596 175.52 408.272 174.418 407.624 173.834C406.975 173.251 405.614 173.316 404.9 173.77Z" fill="#263238"/>
<path d="M429.993 208.005L423.509 207.292L391.997 207.097C380.975 207.097 379.548 220.649 378.9 232.709C378.251 244.769 380.326 268.954 377.538 285.099L390.7 293.593L394.396 289.638L400.297 295.149C420.332 295.149 432.068 284.062 433.624 282.116L429.993 208.005Z" fill="#1E40AF"/>
<path opacity="0.2" d="M429.993 208.005L423.509 207.292L391.997 207.097C380.975 207.097 379.548 220.649 378.9 232.709C378.251 244.769 380.326 268.954 377.538 285.099L390.7 293.593L394.396 289.638L400.297 295.149C420.332 295.149 432.068 284.062 433.624 282.116L429.993 208.005Z" fill="white"/>
<path d="M397.184 211.247C394.201 220.648 396.081 233.746 397.184 239.646C404.64 229.337 411.643 219.027 413.782 215.007L403.408 209.95L397.184 211.247Z" fill="#455A64"/>
<path d="M426.102 180.124C425.649 179.151 424.935 178.309 423.963 177.855C423.768 177.79 423.574 177.66 423.314 177.595C422.018 177.336 420.656 177.92 419.748 178.827C418.84 179.735 418.322 180.967 417.998 182.264C417.738 183.561 417.673 184.857 417.608 186.154C417.414 188.553 417.025 190.823 416.506 193.157C415.923 195.621 414.302 197.631 412.097 198.798L411.903 198.928C408.855 200.484 405.159 201.391 401.528 201.651L401.593 204.763V212.025L416.182 204.828C417.219 204.18 417.933 203.077 417.933 201.91C417.998 200.224 417.998 197.112 418.062 195.426C418.127 192.184 418.192 189.461 418.192 189.461C418.776 190.304 419.878 190.823 420.915 190.952C421.434 191.017 421.953 190.952 422.342 190.823C423.768 190.498 424.935 189.396 425.584 188.099C426.297 186.803 426.556 185.376 426.621 183.885C426.686 182.653 426.621 181.291 426.102 180.124Z" fill="#FFA8A7"/>
<path d="M413.977 198.668C414.885 197.566 415.469 196.269 415.793 194.972C415.015 196.593 413.718 197.955 412.097 198.798C412.011 198.841 411.946 198.884 411.903 198.927C408.855 200.484 405.159 201.391 401.528 201.651L401.593 204.309C403.668 204.115 405.743 203.726 407.688 203.012C410.152 202.169 412.421 200.743 413.977 198.668Z" fill="#F28F8F"/>
<path d="M401.528 219.87L398.935 219.287C398.935 219.287 397.054 224.085 395.822 229.337C396.146 233.487 396.73 237.183 397.184 239.646C398.61 237.636 400.037 235.626 401.463 233.616C401.204 230.245 400.88 224.669 401.528 219.87Z" fill="#1E40AF"/>
<path opacity="0.2" d="M401.464 220.454C401.464 220.238 401.485 220.043 401.528 219.87L398.935 219.287C398.935 219.287 398.87 219.417 398.805 219.676C399.194 220 399.713 220.324 400.232 220.454C400.621 220.519 401.075 220.519 401.464 220.454Z" fill="black"/>
<path d="M402.89 213.127L404.9 211.83L409.633 214.424C407.559 216.304 404.057 216.628 404.057 216.628L402.89 213.127Z" fill="#1E40AF"/>
<path d="M399.778 212.673L399.129 211.247L396.795 212.738C397.249 214.294 398.286 215.008 398.286 215.008L399.778 212.673Z" fill="#1E40AF"/>
<path opacity="0.2" d="M402.89 213.127L404.9 211.83L409.633 214.424C407.559 216.304 404.057 216.628 404.057 216.628L402.89 213.127Z" fill="black"/>
<path opacity="0.2" d="M399.778 212.673L399.129 211.247L396.795 212.738C397.249 214.294 398.286 215.008 398.286 215.008L399.778 212.673Z" fill="black"/>
<path d="M404.057 216.628C403.863 215.461 403.474 214.229 402.89 213.127C401.853 212.997 400.815 212.846 399.778 212.673C399.194 213.386 398.676 214.165 398.287 215.007C398.157 217.277 398.935 219.287 398.935 219.287C400.102 219.935 401.529 219.87 401.529 219.87C403.344 218.768 404.057 216.628 404.057 216.628Z" fill="#1E40AF"/>
<path d="M401.788 212.025C406.716 211.96 409.763 215.915 414.302 217.277L423.509 207.292L419.943 201.975C419.23 200.938 419.035 200.03 417.933 199.317V201.262C417.868 202.429 416.571 203.466 415.534 204.05L401.788 212.025Z" fill="#37474F"/>
<path d="M401.788 212.025C399.064 211.182 394.915 214.619 394.915 214.619C396.341 206.708 400.685 203.531 401.788 203.531V212.025Z" fill="#37474F"/>
<path opacity="0.2" d="M396.147 240.36L392.775 244.898C391.867 246.13 391.413 247.686 391.478 249.243L393.748 287.044L389.857 249.502C389.598 247.362 390.441 245.223 392.062 243.861L396.147 240.36Z" fill="black"/>
<path d="M446.527 284.126C444.323 283.089 442.378 281.468 440.886 279.458L438.682 283.348C435.764 282.181 432.652 281.144 429.799 279.977C429.086 279.652 428.307 279.393 427.529 279.393C426.816 279.458 425.973 279.977 425.844 280.69C425.714 281.468 426.297 282.246 426.881 282.765C428.372 284.256 430.123 285.488 432.068 286.331C429.41 288.795 426.362 290.74 423.056 292.102C422.018 292.491 420.916 292.88 420.008 293.463C419.035 294.047 418.193 294.955 417.998 296.057C417.674 297.483 418.387 298.91 419.295 300.012C421.434 302.476 424.806 303.643 428.048 303.643C431.29 303.578 434.467 302.411 437.255 300.725C440.043 299.039 442.507 296.835 444.906 294.695C448.019 291.842 450.612 288.989 453.335 285.423C451.001 285.488 448.667 285.099 446.527 284.126Z" fill="#FFA8A7"/>
<path d="M466.627 266.425C468.832 263.248 469.221 259.163 467.6 255.662C458.782 237.118 447.629 218.379 447.629 218.379C443.09 210.663 439.784 207.292 429.798 207.94C425.908 221.232 429.474 228.429 439.135 243.667L450.871 261.951L440.886 279.458C442.377 281.468 444.322 283.089 446.527 284.126C448.667 285.099 451.001 285.488 453.335 285.423C453.508 285.164 453.681 284.926 453.854 284.71L466.627 266.425Z" fill="#455A64"/>
</svg>
