<svg width="167" height="31" viewBox="0 0 167 31" fill="none" xmlns="http://www.w3.org/2000/svg">
<path d="M2.53125 25.8453V10.8599C2.53125 9.75531 3.42668 8.85988 4.53125 8.85988H25.8452C26.9498 8.85988 27.8452 9.75531 27.8452 10.8599V25.8453C27.8452 26.9499 26.9498 27.8453 25.8452 27.8453H4.53125C3.42668 27.8453 2.53125 26.9499 2.53125 25.8453Z" stroke="white" stroke-width="2"/>
<path d="M17.2856 16.2369L13.7057 19.8168" stroke="white" stroke-width="2" stroke-linecap="round" stroke-linejoin="round"/>
<path d="M20.8656 16.2369C19.877 17.2255 18.2742 17.2255 17.2856 16.2369C16.2971 15.2483 16.2971 13.6456 17.2856 12.657" stroke="white" stroke-width="2" stroke-linecap="round" stroke-linejoin="round"/>
<path d="M13.7055 23.3968C14.6941 22.4082 14.6941 20.8055 13.7055 19.8169C12.7169 18.8283 11.1141 18.8283 10.1256 19.8169" stroke="white" stroke-width="2" stroke-linecap="round" stroke-linejoin="round"/>
<path d="M10.7583 3.16425L15.1882 7.59419L19.6182 3.16425" stroke="white" stroke-width="2" stroke-linecap="round" stroke-linejoin="round"/>
<path d="M36.0723 21.6657V9.23889H40.975C41.9135 9.23889 42.7145 9.40677 43.3779 9.74252C44.0454 10.0742 44.553 10.5455 44.9009 11.1563C45.2528 11.7631 45.4288 12.4771 45.4288 13.2983C45.4288 14.1235 45.2508 14.8334 44.8948 15.428C44.5389 16.0186 44.0231 16.4717 43.3476 16.7872C42.6761 17.1028 41.863 17.2605 40.9083 17.2605H37.6256V15.1489H40.4836C40.9852 15.1489 41.4018 15.0802 41.7335 14.9426C42.0652 14.8051 42.312 14.5988 42.4738 14.3237C42.6396 14.0486 42.7226 13.7068 42.7226 13.2983C42.7226 12.8856 42.6396 12.5378 42.4738 12.2546C42.312 11.9714 42.0632 11.757 41.7275 11.6114C41.3957 11.4617 40.9771 11.3869 40.4714 11.3869H38.6996V21.6657H36.0723ZM42.7833 16.0106L45.8718 21.6657H42.9714L39.9496 16.0106H42.7833Z" fill="white"/>
<path d="M51.2979 21.8478C50.3554 21.8478 49.5402 21.6475 48.8526 21.2471C48.1689 20.8425 47.641 20.2803 47.2689 19.5602C46.8967 18.8361 46.7106 17.9967 46.7106 17.0421C46.7106 16.0793 46.8967 15.2379 47.2689 14.5179C47.641 13.7938 48.1689 13.2315 48.8526 12.831C49.5402 12.4265 50.3554 12.2243 51.2979 12.2243C52.2404 12.2243 53.0535 12.4265 53.7371 12.831C54.4248 13.2315 54.9547 13.7938 55.3269 14.5179C55.6991 15.2379 55.8851 16.0793 55.8851 17.0421C55.8851 17.9967 55.6991 18.8361 55.3269 19.5602C54.9547 20.2803 54.4248 20.8425 53.7371 21.2471C53.0535 21.6475 52.2404 21.8478 51.2979 21.8478ZM51.31 19.8454C51.7388 19.8454 52.0968 19.724 52.384 19.4813C52.6712 19.2346 52.8877 18.8988 53.0333 18.4741C53.183 18.0493 53.2578 17.5659 53.2578 17.0239C53.2578 16.4818 53.183 15.9984 53.0333 15.5737C52.8877 15.1489 52.6712 14.8132 52.384 14.5664C52.0968 14.3197 51.7388 14.1963 51.31 14.1963C50.8772 14.1963 50.5131 14.3197 50.2178 14.5664C49.9266 14.8132 49.7061 15.1489 49.5564 15.5737C49.4108 15.9984 49.338 16.4818 49.338 17.0239C49.338 17.5659 49.4108 18.0493 49.5564 18.4741C49.7061 18.8988 49.9266 19.2346 50.2178 19.4813C50.5131 19.724 50.8772 19.8454 51.31 19.8454Z" fill="white"/>
<path d="M57.6145 21.6657V9.23889H60.1993V13.9111H60.2782C60.3915 13.6603 60.5553 13.4054 60.7697 13.1466C60.9882 12.8836 61.2713 12.6652 61.6192 12.4912C61.9711 12.3132 62.408 12.2243 62.9299 12.2243C63.6095 12.2243 64.2365 12.4022 64.8109 12.7582C65.3853 13.1101 65.8444 13.6421 66.1883 14.354C66.5321 15.062 66.704 15.9499 66.704 17.0178C66.704 18.0574 66.5362 18.9352 66.2004 19.6512C65.8687 20.3632 65.4156 20.9032 64.8412 21.2713C64.2708 21.6354 63.6317 21.8174 62.9238 21.8174C62.4222 21.8174 61.9954 21.7345 61.6435 21.5687C61.2956 21.4028 61.0104 21.1945 60.7879 20.9437C60.5654 20.6888 60.3955 20.432 60.2782 20.1731H60.1629V21.6657H57.6145ZM60.1447 17.0057C60.1447 17.5599 60.2216 18.0433 60.3753 18.4559C60.529 18.8685 60.7515 19.1901 61.0428 19.4207C61.334 19.6472 61.688 19.7605 62.1046 19.7605C62.5253 19.7605 62.8813 19.6452 63.1726 19.4146C63.4638 19.18 63.6843 18.8564 63.834 18.4437C63.9877 18.0271 64.0645 17.5477 64.0645 17.0057C64.0645 16.4677 63.9897 15.9944 63.84 15.5858C63.6904 15.1772 63.4699 14.8577 63.1786 14.6271C62.8874 14.3965 62.5294 14.2812 62.1046 14.2812C61.6839 14.2812 61.328 14.3925 61.0367 14.615C60.7495 14.8374 60.529 15.153 60.3753 15.5615C60.2216 15.9701 60.1447 16.4515 60.1447 17.0057Z" fill="white"/>
<path d="M72.6763 21.8478C71.7175 21.8478 70.8923 21.6536 70.2006 21.2653C69.5129 20.8729 68.983 20.3187 68.6108 19.6027C68.2387 18.8826 68.0526 18.0311 68.0526 17.0482C68.0526 16.0894 68.2387 15.248 68.6108 14.5239C68.983 13.7999 69.5068 13.2356 70.1824 12.831C70.862 12.4265 71.6589 12.2243 72.5731 12.2243C73.188 12.2243 73.7604 12.3234 74.2903 12.5216C74.8243 12.7157 75.2895 13.009 75.6859 13.4014C76.0864 13.7938 76.3978 14.2873 76.6203 14.8819C76.8428 15.4725 76.9541 16.1643 76.9541 16.9571V17.6671H69.0841V16.0652H74.5209C74.5209 15.693 74.44 15.3633 74.2782 15.0761C74.1163 14.7889 73.8918 14.5644 73.6046 14.4026C73.3215 14.2367 72.9918 14.1538 72.6156 14.1538C72.2232 14.1538 71.8753 14.2448 71.5719 14.4269C71.2726 14.6049 71.038 14.8455 70.8681 15.1489C70.6982 15.4483 70.6112 15.782 70.6071 16.1501V17.6731C70.6071 18.1343 70.6921 18.5327 70.862 18.8685C71.0359 19.2042 71.2807 19.4631 71.5962 19.6452C71.9117 19.8272 72.2859 19.9182 72.7187 19.9182C73.0059 19.9182 73.2689 19.8778 73.5075 19.7969C73.7462 19.716 73.9505 19.5946 74.1204 19.4328C74.2903 19.271 74.4197 19.0728 74.5087 18.8382L76.8994 18.9959C76.7781 19.5703 76.5293 20.0719 76.1531 20.5007C75.7809 20.9255 75.2996 21.2572 74.709 21.4958C74.1224 21.7305 73.4448 21.8478 72.6763 21.8478Z" fill="white"/>
<path d="M78.6409 21.6657V12.3456H81.1469V13.9718H81.244C81.4139 13.3933 81.6991 12.9564 82.0996 12.6611C82.5 12.3618 82.9612 12.2121 83.483 12.2121C83.6125 12.2121 83.752 12.2202 83.9017 12.2364C84.0514 12.2526 84.1828 12.2748 84.2961 12.3031V14.5968C84.1747 14.5604 84.0069 14.528 83.7925 14.4997C83.5781 14.4714 83.3819 14.4572 83.2039 14.4572C82.8236 14.4572 82.4838 14.5401 82.1845 14.706C81.8892 14.8678 81.6546 15.0943 81.4806 15.3856C81.3107 15.6768 81.2258 16.0126 81.2258 16.3928V21.6657H78.6409Z" fill="white"/>
<path d="M91.0571 12.3456V14.2873H85.4444V12.3456H91.0571ZM86.7187 10.1127H89.3035V18.8017C89.3035 19.0404 89.3399 19.2265 89.4128 19.36C89.4856 19.4894 89.5867 19.5804 89.7162 19.633C89.8496 19.6856 90.0034 19.7119 90.1773 19.7119C90.2987 19.7119 90.42 19.7018 90.5414 19.6816C90.6627 19.6573 90.7558 19.6391 90.8205 19.627L91.227 21.5505C91.0976 21.5909 90.9156 21.6374 90.6809 21.69C90.4463 21.7466 90.1611 21.781 89.8254 21.7932C89.2024 21.8174 88.6563 21.7345 88.1871 21.5444C87.7219 21.3543 87.3598 21.059 87.1009 20.6585C86.842 20.258 86.7146 19.7524 86.7187 19.1415V10.1127Z" fill="white"/>
<path d="M103.486 12.8128C103.437 12.3234 103.229 11.9431 102.861 11.6721C102.492 11.4011 101.993 11.2655 101.362 11.2655C100.933 11.2655 100.571 11.3262 100.276 11.4476C99.9803 11.5649 99.7538 11.7287 99.5961 11.9391C99.4423 12.1494 99.3655 12.3881 99.3655 12.6551C99.3574 12.8776 99.4039 13.0717 99.505 13.2376C99.6102 13.4034 99.7538 13.547 99.9358 13.6684C100.118 13.7857 100.328 13.8888 100.567 13.9778C100.806 14.0628 101.06 14.1356 101.331 14.1963L102.448 14.4633C102.99 14.5846 103.488 14.7464 103.941 14.9487C104.394 15.151 104.786 15.3997 105.118 15.695C105.449 15.9903 105.706 16.3382 105.888 16.7387C106.074 17.1392 106.169 17.5983 106.174 18.1161C106.169 18.8766 105.975 19.5359 105.591 20.0942C105.211 20.6484 104.661 21.0792 103.941 21.3866C103.225 21.69 102.361 21.8417 101.35 21.8417C100.346 21.8417 99.4727 21.688 98.7284 21.3806C97.9881 21.0731 97.4096 20.618 96.993 20.0153C96.5804 19.4085 96.3639 18.6581 96.3437 17.7642H98.8861C98.9144 18.1808 99.0338 18.5287 99.2441 18.8078C99.4585 19.0829 99.7437 19.2912 100.1 19.4328C100.46 19.5703 100.866 19.6391 101.319 19.6391C101.764 19.6391 102.151 19.5744 102.478 19.4449C102.81 19.3155 103.067 19.1355 103.249 18.9049C103.431 18.6743 103.522 18.4094 103.522 18.11C103.522 17.8309 103.439 17.5963 103.273 17.4062C103.111 17.216 102.873 17.0542 102.557 16.9207C102.246 16.7872 101.863 16.6659 101.41 16.5567L100.057 16.2169C99.0095 15.962 98.1822 15.5636 97.5755 15.0215C96.9687 14.4794 96.6673 13.7493 96.6714 12.831C96.6673 12.0786 96.8676 11.4213 97.2721 10.859C97.6806 10.2967 98.2409 9.85781 98.9529 9.54228C99.6648 9.22676 100.474 9.069 101.38 9.069C102.302 9.069 103.107 9.22676 103.795 9.54228C104.487 9.85781 105.025 10.2967 105.409 10.859C105.793 11.4213 105.992 12.0726 106.004 12.8128H103.486Z" fill="white"/>
<path d="M107.892 21.6657V12.3456H110.477V21.6657H107.892ZM109.191 11.1442C108.806 11.1442 108.477 11.0168 108.202 10.7619C107.931 10.503 107.795 10.1936 107.795 9.83354C107.795 9.47756 107.931 9.17215 108.202 8.9173C108.477 8.65841 108.806 8.52896 109.191 8.52896C109.575 8.52896 109.903 8.65841 110.174 8.9173C110.449 9.17215 110.586 9.47756 110.586 9.83354C110.586 10.1936 110.449 10.503 110.174 10.7619C109.903 11.0168 109.575 11.1442 109.191 11.1442Z" fill="white"/>
<path d="M115.133 16.2775V21.6657H112.548V12.3456H115.011V13.99H115.121C115.327 13.4479 115.673 13.0191 116.158 12.7036C116.644 12.384 117.232 12.2243 117.924 12.2243C118.571 12.2243 119.135 12.3658 119.617 12.649C120.098 12.9322 120.472 13.3367 120.739 13.8626C121.006 14.3844 121.14 15.0073 121.14 15.7314V21.6657H118.555V16.1926C118.559 15.6222 118.413 15.1772 118.118 14.8577C117.823 14.5341 117.416 14.3723 116.898 14.3723C116.55 14.3723 116.243 14.4471 115.976 14.5968C115.713 14.7464 115.507 14.9649 115.357 15.2521C115.212 15.5352 115.137 15.8771 115.133 16.2775Z" fill="white"/>
<path d="M125.835 21.8417C125.24 21.8417 124.71 21.7386 124.245 21.5323C123.78 21.3219 123.412 21.0124 123.141 20.6039C122.874 20.1913 122.74 19.6775 122.74 19.0627C122.74 18.5449 122.835 18.11 123.025 17.7581C123.215 17.4062 123.474 17.123 123.802 16.9086C124.13 16.6942 124.502 16.5324 124.918 16.4232C125.339 16.3139 125.78 16.2371 126.241 16.1926C126.783 16.136 127.22 16.0834 127.552 16.0348C127.884 15.9822 128.124 15.9054 128.274 15.8043C128.424 15.7031 128.498 15.5534 128.498 15.3552V15.3188C128.498 14.9345 128.377 14.6372 128.134 14.4269C127.896 14.2165 127.556 14.1113 127.115 14.1113C126.65 14.1113 126.28 14.2145 126.005 14.4208C125.73 14.6231 125.548 14.8779 125.459 15.1853L123.068 14.9912C123.189 14.4248 123.428 13.9354 123.784 13.5228C124.14 13.1061 124.599 12.7865 125.161 12.564C125.728 12.3375 126.383 12.2243 127.127 12.2243C127.645 12.2243 128.14 12.2849 128.614 12.4063C129.091 12.5276 129.514 12.7157 129.882 12.9706C130.254 13.2254 130.547 13.5531 130.762 13.9536C130.976 14.35 131.083 14.8253 131.083 15.3795V21.6657H128.632V20.3733H128.559C128.409 20.6646 128.209 20.9214 127.958 21.1439C127.708 21.3624 127.406 21.5343 127.054 21.6597C126.702 21.781 126.296 21.8417 125.835 21.8417ZM126.575 20.0578C126.955 20.0578 127.291 19.9829 127.582 19.8333C127.874 19.6796 128.102 19.4732 128.268 19.2144C128.434 18.9555 128.517 18.6622 128.517 18.3345V17.3455C128.436 17.3981 128.325 17.4466 128.183 17.4911C128.045 17.5316 127.89 17.57 127.716 17.6064C127.542 17.6388 127.368 17.6691 127.194 17.6974C127.02 17.7217 126.862 17.7439 126.721 17.7642C126.417 17.8086 126.152 17.8794 125.926 17.9765C125.699 18.0736 125.523 18.2051 125.398 18.3709C125.272 18.5327 125.21 18.735 125.21 18.9777C125.21 19.3296 125.337 19.5986 125.592 19.7847C125.851 19.9668 126.179 20.0578 126.575 20.0578Z" fill="white"/>
<path d="M133.089 21.6657V12.3456H135.595V13.9718H135.692C135.862 13.3933 136.147 12.9564 136.547 12.6611C136.948 12.3618 137.409 12.2121 137.931 12.2121C138.06 12.2121 138.2 12.2202 138.35 12.2364C138.499 12.2526 138.631 12.2748 138.744 12.3031V14.5968C138.623 14.5604 138.455 14.528 138.24 14.4997C138.026 14.4714 137.83 14.4572 137.652 14.4572C137.272 14.4572 136.932 14.5401 136.632 14.706C136.337 14.8678 136.102 15.0943 135.929 15.3856C135.759 15.6768 135.674 16.0126 135.674 16.3928V21.6657H133.089Z" fill="white"/>
<path d="M143.61 11.4051V9.23889H153.816V11.4051H150.012V21.6657H147.415V11.4051H143.61Z" fill="white"/>
<path d="M157.742 9.23889L160.746 18.6804H160.861L163.871 9.23889H166.783L162.499 21.6657H159.114L154.824 9.23889H157.742Z" fill="white"/>
</svg>
